<svg width="32" height="32" viewBox="0 0 32 32" fill="none" xmlns="http://www.w3.org/2000/svg">
    <path fill="#FFFFFF" d="M12.57 17.26C10.2 13.3 8.93 8.86 9.32 5.92c.18-1.35.67-2.2 1.39-2.43.68-.22 1.52.22 2.35 1.24 1.77 2.18 3.03 6.31 3.24 10.58-1.38.08-2.65.74-3.73 1.95Z"/>
    <path fill="#FFFFFF" d="M19.43 17.26c2.37-3.96 3.64-8.4 3.25-11.34-.18-1.35-.67-2.2-1.39-2.43-.68-.22-1.52.22-2.35 1.24-1.77 2.18-3.03 6.31-3.24 10.58 1.38.08 2.65.74 3.73 1.95Z"/>
    <path fill="#FFFFFF" d="M24.5 21.25c0 4.03-3.8 7.3-8.5 7.3s-8.5-3.27-8.5-7.3c0-3.77 3.43-6.7 8.5-6.7s8.5 2.93 8.5 6.7Z"/>
    <path fill="#E91E63" d="M13.05 11.4c-.98-2.74-1.23-5.07-.54-5.32.69-.24 2.05 1.73 3.04 4.47.42 1.17.69 2.29.79 3.21-.64-.04-1.25-.02-1.82.06-.34-.69-.84-1.5-1.47-2.42Z" opacity=".28"/>
    <path fill="#E91E63" d="M18.95 11.4c.98-2.74 1.23-5.07.54-5.32-.69-.24-2.05 1.73-3.04 4.47-.42 1.17-.69 2.29-.79 3.21.64-.04 1.25-.02 1.82.06.34-.69.84-1.5 1.47-2.42Z" opacity=".28"/>
    <path fill="#E91E63" d="M11.87 23.14c.78 1.36 2.25 2.23 4.13 2.23s3.35-.87 4.13-2.23c.25-.43-.23-.91-.66-.65-.88.54-2.06.85-3.47.85s-2.59-.31-3.47-.85c-.43-.26-.91.22-.66.65Z" opacity=".35"/>
</svg>
